<?xml version="1.0" encoding="utf-8"?>
<!-- Generator: Adobe Illustrator 28.0.0, SVG Export Plug-In . SVG Version: 6.00 Build 0)  -->
<svg version="1.1" id="Warstwa_1" xmlns="http://www.w3.org/2000/svg" xmlns:xlink="http://www.w3.org/1999/xlink" x="0px" y="0px"
	 viewBox="0 0 1920 1080" style="enable-background:new 0 0 1920 1080;" xml:space="preserve">
<style type="text/css">
	.st0{fill:#FFFFFF;}
</style>
<g>
	<g>
		<path class="st0" d="M654,598c0-54.33,0-108.66,0-163c158.33,0,316.66,0,475,0c0,54.33,0,108.66,0,163
			C970.67,598,812.34,598,654,598z M662.13,558.53c0.38,0.49,0.77,0.97,1.15,1.46c1.75,0,3.49,0,5.24,0
			c26.32,0,52.64,0.01,78.95-0.01c4.62,0,9.48-0.73,11.97,4.73c0.11,0.24,1.2,0.03,1.83,0.03c0-8.64,0-17.11,0-25.69
			c-0.97,0.11-1.77,0.01-1.88,0.24c-2.28,4.83-6.52,4.78-10.96,4.76c-17.66-0.09-35.31-0.04-52.97-0.04c-1.77,0-3.55,0-5.31,0
			c0-9.67,0-18.71,0-28.02c11.54,0,22.68,0.01,33.82-0.01c4.47-0.01,9.17-0.71,11.49,4.66c0.13,0.3,1.2,0.19,2.13,0.31
			c0-8.73,0-17.21,0-26.14c-1.14,0.41-2.31,0.48-2.49,0.94c-1.73,4.4-5.43,4.31-9.17,4.26c-3.16-0.04-6.33-0.01-9.49-0.01
			c-8.77,0-17.54,0-26.28,0c0-8.34,0-16.05,0-24.02c18.88,0,37.35,0.01,55.82-0.01c4.47,0,9.17-0.71,11.49,4.67
			c0.13,0.3,1.2,0.19,2.12,0.31c0-8.73,0-17.21,0-25.95c-1,0.15-2.07,0.07-2.19,0.38c-2.16,5.2-6.65,4.65-10.99,4.64
			c-25.99-0.02-51.97-0.01-77.96-0.01c-1.73,0-3.46,0-5.19,0c6.5,4.98,3.85,11.58,3.9,17.28c0.22,23.48,0.1,46.97,0.08,70.46
			C667.24,551.95,668.37,556.61,662.13,558.53z M851.32,478.01c-0.34,0.43-0.68,0.85-1.03,1.28c6.9,2.69,5.37,8.25,5.39,13.21
			c0.05,15.66,0.27,31.33-0.1,46.99c-0.16,6.81,3.05,14.6-4.85,19.69c0.86,0.46,1.13,0.72,1.4,0.72
			c18.83,0.01,37.67,0.52,56.47-0.17c14.17-0.52,25.61-6.79,31.92-20.32c4.46-9.57,4.57-19.77,3.19-29.88
			c-2.3-16.93-13.3-28.58-30.23-30.38c-13.85-1.47-27.91-0.89-41.88-1.13C864.85,477.91,858.08,478.01,851.32,478.01z
			 M1121.9,486.65c-4.39-1.24-7.87-2.04-11.21-3.22c-3.91-1.38-7.6-3.47-11.57-4.58c-16.6-4.67-32.92-5.2-47.78,5.28
			c-7.85,5.53-10.28,13.76-8.94,22.94c1.41,9.64,7.09,16.06,16.52,18.59c4.62,1.24,9.47,1.69,14.24,2.28
			c8.24,1.02,16.57,1.53,24.72,3.01c2.33,0.42,5.31,3.09,6,5.34c1.07,3.52-2.14,5.49-5.21,6.81c-14.8,6.36-38.75,1.64-49.52-10.13
			c-2.94,7.27-5.78,14.3-8.28,20.46c3.87,0.75,6.93,0.79,9.5,1.94c13.43,6.05,27.57,7.93,41.95,6.25c6.75-0.79,13.61-3.24,19.7-6.36
			c8.77-4.49,12.81-12.55,11.68-22.45c-1.14-10.07-6.91-17.19-16.69-19.6c-8.81-2.17-17.99-2.85-27.01-4.15
			c-5.26-0.76-10.63-1.04-15.76-2.29c-5.1-1.24-5.98-5.99-2.06-9.52c1.32-1.19,3.01-2.11,4.68-2.77
			c14.45-5.73,35.06-0.86,45.38,11.15C1115.7,498.84,1119.01,492.34,1121.9,486.65z M979.49,559.56c9.66,0,19.32,0,28.98,0
			c-6.13-3.6-4.49-9.29-4.53-14.4c-0.05-5.33-0.3-10.68,0.11-15.98c0.22-2.79,0.98-6.02,2.66-8.14
			c11.18-14.15,18.96-31.02,34.1-42.52c-12.15,0-23.87,0-36.17,0c1.92,3.04,7.22,3.75,4.25,8.23c-4.47,6.75-9.06,13.43-13.98,20.71
			c-4.94-7.06-9.43-13.4-13.83-19.8c-1.76-2.56-1.89-5.01,1.32-6.64c0.86-0.44,1.81-0.69,2.72-1.02c-0.38-0.52-0.77-1.03-1.15-1.55
			c-12.23,0-24.45,0-36.68,0c7.42,4.15,11.32,11.16,15.94,17.49c3.04,4.17,5.57,8.8,9.09,12.51c9.76,10.33,13.64,22.24,11.8,36.32
			C983.43,549.97,985.53,555.87,979.49,559.56z M768.36,557.33c4.51,0.5,7.84,0.84,11.15,1.26c8.85,1.11,17.69,3.14,26.55,3.22
			c18.09,0.16,27.6-9.9,27.68-27.95c0.05-13.15-0.1-26.31,0.06-39.46c0.07-5.48-2.1-11.7,4.13-15.99c-9.57,0-19.14,0-28.71,0
			c6.53,4.3,4.34,10.73,4.42,16.36c0.18,11.49,0.07,22.98,0.05,34.47c-0.02,12.79-5.78,17.9-18.43,16.31
			c-1.97-0.25-3.93-0.67-5.86-1.13c-5.64-1.35-10.91-3.3-13.04-9.96c-0.34,0.26-0.69,0.52-1.03,0.78
			C772.94,542.83,770.54,550.42,768.36,557.33z"/>
		<path d="M662.13,558.53c6.25-1.92,5.11-6.58,5.11-10.79c0.01-23.49,0.13-46.97-0.08-70.46c-0.05-5.7,2.6-12.3-3.9-17.28
			c1.73,0,3.46,0,5.19,0c25.99,0,51.97-0.01,77.96,0.01c4.34,0,8.83,0.56,10.99-4.64c0.13-0.31,1.19-0.22,2.19-0.38
			c0,8.74,0,17.23,0,25.95c-0.92-0.12-1.99-0.01-2.12-0.31c-2.32-5.37-7.02-4.67-11.49-4.67c-18.47,0.02-36.94,0.01-55.82,0.01
			c0,7.97,0,15.68,0,24.02c8.73,0,17.51,0,26.28,0c3.16,0,6.33-0.03,9.49,0.01c3.74,0.05,7.44,0.14,9.17-4.26
			c0.18-0.46,1.34-0.53,2.49-0.94c0,8.93,0,17.41,0,26.14c-0.93-0.12-2-0.01-2.13-0.31c-2.32-5.38-7.02-4.67-11.49-4.66
			c-11.14,0.02-22.28,0.01-33.82,0.01c0,9.31,0,18.35,0,28.02c1.76,0,3.54,0,5.31,0c17.66,0,35.31-0.05,52.97,0.04
			c4.44,0.02,8.68,0.07,10.96-4.76c0.11-0.23,0.92-0.13,1.88-0.24c0,8.58,0,17.06,0,25.69c-0.63,0-1.72,0.21-1.83-0.03
			c-2.49-5.46-7.35-4.73-11.97-4.73c-26.32,0.01-52.64,0.01-78.95,0.01c-1.75,0-3.49,0-5.24,0
			C662.9,559.51,662.51,559.02,662.13,558.53z"/>
		<path d="M851.32,478.01c6.76,0,13.52-0.1,20.28,0.02c13.97,0.24,28.04-0.34,41.88,1.13c16.93,1.8,27.93,13.45,30.23,30.38
			c1.38,10.11,1.27,20.31-3.19,29.88c-6.31,13.53-17.75,19.8-31.92,20.32c-18.8,0.69-37.65,0.18-56.47,0.17
			c-0.27,0-0.53-0.26-1.4-0.72c7.9-5.09,4.69-12.88,4.85-19.69c0.37-15.65,0.15-31.32,0.1-46.99c-0.02-4.96,1.51-10.53-5.39-13.21
			C850.64,478.86,850.98,478.44,851.32,478.01z M875.96,544.33c9.21,0,17.88,0.66,26.41-0.15c13.56-1.28,19.59-7.75,21.48-21.29
			c1.89-13.57-4.3-25.83-15.77-27.98c-10.44-1.96-21.27-1.79-32.12-2.58C875.96,510.58,875.96,527.49,875.96,544.33z"/>
		<path d="M1121.9,486.65c-2.89,5.69-6.2,12.2-9.65,18.99c-10.32-12.01-30.93-16.88-45.38-11.15c-1.67,0.66-3.35,1.58-4.68,2.77
			c-3.91,3.53-3.04,8.28,2.06,9.52c5.13,1.25,10.5,1.53,15.76,2.29c9.02,1.3,18.2,1.98,27.01,4.15c9.78,2.41,15.55,9.53,16.69,19.6
			c1.12,9.89-2.92,17.96-11.68,22.45c-6.09,3.12-12.95,5.57-19.7,6.36c-14.38,1.68-28.52-0.2-41.95-6.25
			c-2.56-1.15-5.63-1.19-9.5-1.94c2.49-6.17,5.34-13.19,8.28-20.46c10.77,11.78,34.72,16.5,49.52,10.13
			c3.07-1.32,6.28-3.29,5.21-6.81c-0.69-2.25-3.67-4.92-6-5.34c-8.15-1.48-16.48-1.99-24.72-3.01c-4.77-0.59-9.62-1.04-14.24-2.28
			c-9.43-2.53-15.11-8.95-16.52-18.59c-1.35-9.18,1.09-17.41,8.94-22.94c14.86-10.48,31.19-9.94,47.78-5.28
			c3.97,1.12,7.66,3.21,11.57,4.58C1114.04,484.61,1117.51,485.41,1121.9,486.65z"/>
		<path d="M979.49,559.56c6.04-3.69,3.94-9.59,4.62-14.79c1.84-14.09-2.04-26-11.8-36.32c-3.51-3.72-6.05-8.34-9.09-12.51
			c-4.62-6.33-8.52-13.34-15.94-17.49c12.23,0,24.45,0,36.68,0c0.38,0.52,0.77,1.03,1.15,1.55c-0.91,0.34-1.86,0.59-2.72,1.02
			c-3.21,1.64-3.08,4.08-1.32,6.64c4.4,6.41,8.89,12.75,13.83,19.8c4.92-7.28,9.51-13.96,13.98-20.71c2.97-4.48-2.33-5.19-4.25-8.23
			c12.29,0,24.02,0,36.17,0c-15.14,11.5-22.92,28.37-34.1,42.52c-1.67,2.12-2.44,5.35-2.66,8.14c-0.41,5.3-0.16,10.65-0.11,15.98
			c0.05,5.11-1.59,10.81,4.53,14.4C998.81,559.56,989.15,559.56,979.49,559.56z"/>
		<path d="M768.36,557.33c2.18-6.91,4.58-14.5,6.97-22.1c0.34-0.26,0.69-0.52,1.03-0.78c2.13,6.66,7.4,8.61,13.04,9.96
			c1.93,0.46,3.89,0.88,5.86,1.13c12.65,1.59,18.42-3.52,18.43-16.31c0.02-11.49,0.13-22.98-0.05-34.47
			c-0.09-5.63,2.11-12.05-4.42-16.36c9.57,0,19.14,0,28.71,0c-6.23,4.29-4.07,10.51-4.13,15.99c-0.16,13.15-0.01,26.31-0.06,39.46
			c-0.07,18.05-9.59,28.11-27.68,27.95c-8.86-0.08-17.7-2.1-26.55-3.22C776.2,558.17,772.87,557.83,768.36,557.33z"/>
		<path class="st0" d="M875.96,544.33c0-16.83,0-33.74,0-52c10.85,0.78,21.68,0.62,32.12,2.58c11.47,2.16,17.66,14.41,15.77,27.98
			c-1.88,13.54-7.91,20.01-21.48,21.29C893.84,544.98,885.16,544.33,875.96,544.33z"/>
	</g>
</g>
</svg>
